Coordinates
version=1
nRows=13
nColumns=53
inDegrees=yes

Units are S.I. units (second, meters, Newtons, ...)
Angles are in degrees.

endheader
time	pelvis_tilt	pelvis_list	pelvis_rot	pelvis_tx	pelvis_ty	pelvis_tz	hip_flex_r	hip_add_r	hip_rot_r	pf_flex_r	pf_rot_r	pf_tilt_r	pf_tx_r	pf_ty_r	pf_tz_r	knee_flex_r	knee_add_r	knee_rot_r	knee_tx_r	knee_ty_r	knee_tz_r	ankle_flex_r	subt_angle_r	mtp_angle_r	hip_flex_l	hip_add_l	hip_rot_l	pf_l_r3	pf_l_tx	pf_l_ty	knee_flex_l	ankle_flex_l	subt_angle_l	mtp_angle_l	lumbar_ext	lumbar_latbend	lumbar_rot	neck_ext	neck_latbend	neck_rot	arm_add_r	arm_flex_r	arm_rot_r	elbow_flex_r	pro_sup_r	wrist_flex_r	arm_add_l	arm_flex_l	arm_rot_l	elbow_flex_l	pro_sup_l	wrist_flex_l
      0.00000000	     -2.89093669	      0.99297128	     -6.95862444	     -1.64734574	      0.90680570	     -0.24219350	     24.83559523	     -5.21299315	     -7.25578688	     49.06671020	      3.05861936	     -0.96278552	      0.02882400	     -0.02730262	      0.00592196	     58.51484188	      3.10551335	     -4.32532034	      0.00322507	     -0.00292935	     -0.00229352	      1.99122141	     -4.56283810	      0.00000000	      4.13039422	     -2.79048897	     -6.21299277	      0.06513700	      0.04435000	     -0.41871200	      0.07799115	      0.00668776	     -0.07900037	      0.00000000	    -12.44495725	     -3.58805117	     -0.45956007	      2.11968006	      0.00000000	      0.00000000	    -16.74227677	     17.22465798	     37.79011484	     18.43686740	     55.09769116	      0.00000000	    -20.89099884	     22.19707500	     32.17350761	     15.31240357	     54.36500284	      0.00000000
      0.00500000	     -2.97169198	      0.97877653	     -6.79101302	     -1.64118695	      0.90759934	     -0.24176426	     25.40154755	     -4.97409343	     -7.28942303	     47.94756254	      3.06975998	     -0.89276154	      0.02968241	     -0.02700523	      0.00590605	     57.14611910	      3.06148036	     -4.21109148	      0.00316859	     -0.00263380	     -0.00228396	      2.17568805	     -4.70901229	      0.00000000	      3.57193356	     -2.78148425	     -6.09663329	      0.06513700	      0.04435000	     -0.41871200	      0.07047588	      0.00833371	     -0.07630818	      0.00000000	    -12.30218037	     -3.47849765	     -0.76484467	      2.13766608	      0.00000000	      0.00000000	    -16.66434006	     17.07590421	     37.80241853	     18.39747710	     55.05180526	      0.00000000	    -21.33925581	     23.08359012	     32.06993908	     15.47176551	     54.32811497	      0.00000000
      0.01000000	     -2.81863653	      0.68102462	     -6.58358613	     -1.63479649	      0.90887573	     -0.24132558	     25.51618289	     -4.44848753	     -7.46387875	     46.59986740	      3.07003678	     -0.81889043	      0.03071967	     -0.02660716	      0.00587973	     55.48889346	      3.01508734	     -4.05363394	      0.00309302	     -0.00229100	     -0.00227047	      2.13709378	     -5.43945422	      0.00000000	      2.66390097	     -2.46045314	     -5.97039438	      0.06513700	      0.04435000	     -0.41871200	      0.06154940	      0.01527090	     -0.06188683	      0.00000000	    -12.63338191	     -3.15838175	     -0.67067445	      2.19413376	      0.00000000	      0.00000000	    -16.74679108	     16.59976609	     37.75212200	     18.07438312	     54.89577291	      0.00000000	    -21.55061117	     24.27060476	     31.88250139	     16.01159131	     54.21169542	      0.00000000
      0.01500000	     -2.94966762	      0.79466210	     -6.43555069	     -1.62847765	      0.90938452	     -0.24091817	     26.15437811	     -4.36709012	     -7.42039505	     45.45703867	      3.05731471	     -0.76716504	      0.03159609	     -0.02623755	      0.00585139	     54.08499160	      2.97914208	     -3.90467790	      0.00302511	     -0.00201744	     -0.00226248	      2.19792762	     -5.52045361	      0.00000000	      2.17332191	     -2.58699526	     -5.74334110	      0.06513700	      0.04435000	     -0.41871200	      0.05432732	      0.01809461	     -0.05895316	      0.00000000	    -12.39873667	     -3.23749214	     -1.05718833	      2.20481482	      0.00000000	      0.00000000	    -16.72493418	     16.50986708	     37.73441339	     18.01760368	     54.86669416	      0.00000000	    -21.88138238	     25.08205248	     31.79556732	     16.18206878	     54.19185399	      0.00000000
      0.02000000	     -2.73854519	      0.39546485	     -6.20731426	     -1.62193717	      0.91072402	     -0.24042262	     26.05376913	     -3.69406749	     -7.54126231	     43.84815644	      3.02103655	     -0.70700581	      0.03281400	     -0.02567468	      0.00580473	     52.12209503	      2.92743952	     -3.67420656	      0.00292153	     -0.00165986	     -0.00226053	      1.76256345	     -6.62522108	      0.00000000	      1.17374632	     -2.13572509	     -5.53966166	      0.06513700	      0.04435000	     -0.41871200	      0.04531795	      0.03256338	     -0.03275917	      0.00000000	    -12.82110341	     -2.77795683	     -0.73648957	      2.27117682	      0.00000000	      0.00000000	    -16.72532047	     15.89998343	     37.57457229	     17.50794714	     54.67587033	      0.00000000	    -22.23589807	     26.45900559	     31.49660669	     16.94687768	     54.05940728	      0.00000000
      0.02500000	     -2.88812922	      0.52074443	     -6.06165455	     -1.61555483	      0.91101593	     -0.23996903	     26.65017327	     -3.61313394	     -7.45024041	     42.58221877	      2.97954078	     -0.66568410	      0.03375081	     -0.02520345	      0.00576483	     50.59690215	      2.88061977	     -3.47861214	      0.00283124	     -0.00140046	     -0.00226905	      1.75358311	     -6.73726323	      0.00000000	      0.70807596	     -2.26515481	     -5.33227615	      0.06513700	      0.04435000	     -0.41871200	      0.03858767	      0.03668764	     -0.02798339	      0.00000000	    -12.53068440	     -2.90312265	     -1.12212096	      2.28474714	      0.00000000	      0.00000000	    -16.66825377	     15.77911641	     37.53770775	     17.43228472	     54.63966832	      0.00000000	    -22.64267554	     27.29649184	     31.37450114	     17.14122613	     54.03393880	      0.00000000
      0.03000000	     -2.78416440	      0.19725693	     -5.89818221	     -1.60906451	      0.91196096	     -0.23927925	     26.65546966	     -2.92165177	     -7.37928282	     40.79430288	      2.90561816	     -0.60897701	      0.03502918	     -0.02450752	      0.00570772	     48.48396306	      2.79717825	     -3.18625540	      0.00268739	     -0.00106485	     -0.00229949	     -0.15379393	     -9.20058429	      0.00000000	     -0.03181296	     -1.84414569	     -4.55537476	      0.06513700	      0.04435000	     -0.41871200	      0.03533403	      0.08078732	      0.03417217	      0.00000000	    -12.82623445	     -2.52060836	     -1.02037398	      2.57789100	      0.00000000	      0.00000000	    -16.44415303	     15.40055678	     36.75555386	     16.65254605	     53.99185384	      0.00000000	    -23.21378263	     28.17595048	     30.19014620	     18.84688752	     53.42208118	      0.00000000
      0.03500000	     -2.75099706	      0.09219059	     -5.68719750	     -1.60254496	      0.91249263	     -0.23891565	     26.83138868	     -2.63377770	     -7.44569379	     39.19303948	      2.82791567	     -0.55398705	      0.03612072	     -0.02386431	      0.00565906	     46.64122477	      2.69916254	     -2.91324631	      0.00254063	     -0.00079251	     -0.00234697	     -0.14272035	     -9.38825477	      0.00000000	     -0.78728427	     -1.72852186	     -4.48513747	      0.06513700	      0.04435000	     -0.41871200	      0.02635297	      0.08395231	      0.04177086	      0.00000000	    -12.88511148	     -2.35753661	     -1.15235295	      2.64332660	      0.00000000	      0.00000000	    -16.44533663	     15.07436280	     36.67335304	     16.45050632	     53.84933631	      0.00000000	    -23.58879636	     29.20167929	     29.84570482	     19.30367193	     53.29131673	      0.00000000
      0.04000000	     -2.76447931	      0.00174985	     -5.51295115	     -1.59610102	      0.91282501	     -0.23839628	     27.04236399	     -2.29386722	     -7.41631718	     37.47799992	      2.73416020	     -0.49371030	      0.03724045	     -0.02315276	      0.00560902	     44.71207380	      2.57354064	     -2.61299081	      0.00237308	     -0.00053053	     -0.00241159	     -0.99297791	    -10.45581779	      0.00000000	     -1.43399612	     -1.60314358	     -4.18538382	      0.06513700	      0.04435000	     -0.41871200	      0.01962258	      0.09829125	      0.06371794	      0.00000000	    -12.92669615	     -2.24102527	     -1.21485697	      2.85694423	      0.00000000	      0.00000000	    -16.36423180	     14.74632106	     36.32046449	     16.08995782	     53.43204722	      0.00000000	    -24.02844568	     30.08144093	     28.89187279	     20.37180195	     52.86092509	      0.00000000
      0.04500000	     -2.91859408	      0.15764632	     -5.33282001	     -1.58973408	      0.91265690	     -0.23805466	     27.52619344	     -2.29823104	     -7.37537936	     35.96186340	      2.64177729	     -0.44636578	      0.03820010	     -0.02249567	      0.00556409	     43.03157916	      2.45245445	     -2.34278064	      0.00222751	     -0.00032666	     -0.00247040	     -0.84929155	    -10.38085119	      0.00000000	     -1.89781581	     -1.76769657	     -4.10400473	      0.06513700	      0.04435000	     -0.41871200	      0.01236972	      0.09963363	      0.06521460	      0.00000000	    -12.64159940	     -2.37615409	     -1.60641284	      2.86890209	      0.00000000	      0.00000000	    -16.35485680	     14.61480499	     36.30690239	     16.03898742	     53.40569476	      0.00000000	    -24.45306154	     30.89577030	     28.74825330	     20.51910440	     52.84021138	      0.00000000
      0.05000000	     -3.02510117	      0.20277237	     -5.12299717	     -1.58336662	      0.91251410	     -0.23769928	     27.85453196	     -2.18501612	     -7.38851806	     34.29674833	      2.52932186	     -0.40818980	      0.03923298	     -0.02173418	      0.00551146	     41.20000144	      2.31619266	     -2.04269189	      0.00208205	     -0.00013570	     -0.00252654	     -0.74382217	    -10.34695995	      0.00000000	     -2.43124098	     -1.80501122	     -4.11800428	      0.06513700	      0.04435000	     -0.41871200	      0.00480741	      0.10136473	      0.06841514	      0.00000000	    -12.48188242	     -2.40124595	     -1.90006905	      2.88171199	      0.00000000	      0.00000000	    -16.31723454	     14.37726991	     36.28906270	     15.93969781	     53.37236770	      0.00000000	    -24.95436845	     31.81490449	     28.56867072	     20.71649358	     52.81925997	      0.00000000
      0.05500000	     -2.82549314	     -0.15563433	     -4.87561584	     -1.57687701	      0.91297793	     -0.23726490	     27.54653310	     -1.59850993	     -7.48491036	     32.15952632	      2.36657519	     -0.39245217	      0.04054349	     -0.02067880	      0.00543487	     38.85126034	      2.14788185	     -1.65516983	      0.00193678	      0.00005285	     -0.00256930	     -2.22261379	    -12.02599259	      0.00000000	     -3.36920763	     -1.37070475	     -3.93311592	      0.06513700	      0.04435000	     -0.41871200	     -0.00300037	      0.12001132	      0.09868739	      0.00000000	    -12.93011732	     -1.99501171	     -1.64788770	      3.09170149	      0.00000000	      0.00000000	    -16.26073171	     13.82054085	     35.78507165	     15.31747018	     52.96063256	      0.00000000	    -25.37619036	     32.85984740	     27.28954501	     22.39348318	     52.42806985	      0.00000000
      0.06000000	     -3.00064725	      0.05020288	     -4.69403397	     -1.57062820	      0.91236222	     -0.23698155	     27.99819548	     -1.70388520	     -7.46001993	     30.58935117	      2.23441563	     -0.40830046	      0.04150117	     -0.01983597	      0.00537169	     37.12060536	      2.03297999	     -1.37053836	      0.00187630	      0.00014919	     -0.00257297	     -2.06998974	    -11.91551945	      0.00000000	     -3.77899071	     -1.59328629	     -3.91289958	      0.06513700	      0.04435000	     -0.41871200	     -0.00976076	      0.12143511	      0.09952773	      0.00000000	    -12.64049319	     -2.16509982	     -2.03011948	      3.10284960	      0.00000000	      0.00000000	    -16.27514587	     13.70368814	     35.76661001	     15.26982720	     52.93764029	      0.00000000	    -25.77716346	     33.61514724	     27.12992184	     22.54167241	     52.40997687	      0.00000000
